<?xml version='1.0' encoding='UTF-8' standalone='no'?>
<!-- Created with Fritzing (http://www.fritzing.org/) -->
<svg xmlns="http://www.w3.org/2000/svg" version="1.2" height="3.93701in" x="0in" y="0in" baseProfile="tiny" width="1.9685in" xmlns:svg="http://www.w3.org/2000/svg" viewBox="0 0 141.732 283.465" >
 <g transform="matrix(-1, 0, 0, 1, 141.732, 0)">
  <g partID="57470">
   <g id="board" >
    <rect height="282.889" x="0.288" y="0.288" width="141.156" id="boardoutline"  fill="none" stroke-width="0.5" stroke="black" fill-opacity="0.5"/>
   </g>
  </g>
  <g partID="854399711">
   <g transform="translate(22.6552,82.2186)">
    <g transform="matrix(0,1,-1,0,0,0)">
     <g id="copper1" >
      <!--  <rect width="55" x="10" y="35" fill="none" height="55" stroke="rgb(255, 191, 0)" stroke-width="20" /> -->
      <circle id="connector0pin"  fill="none" cx="2.7" cy="4.5" stroke-width="1.44" r="1.98" stroke="black"/>
      <circle id="connector1pin"  fill="none" cx="9.9" cy="4.5" stroke-width="1.44" r="1.98" stroke="black"/>
     </g>
    </g>
   </g>
  </g>
  <g partID="854401041">
   <g transform="translate(37.8632,106.426)">
    <g transform="matrix(-1,0,0,-1,0,0)">
     <g id="copper1" >
      <!--  <rect width="55" x="10" y="35" fill="none" height="55" stroke="rgb(255, 191, 0)" stroke-width="20" /> -->
      <circle id="connector0pin"  fill="none" cx="2.7" cy="4.5" stroke-width="1.44" r="1.98" stroke="black"/>
      <circle id="connector1pin"  fill="none" cx="9.9" cy="4.5" stroke-width="1.44" r="1.98" stroke="black"/>
     </g>
    </g>
   </g>
  </g>
  <g partID="854386191">
   <g transform="translate(27.5768,191.086)">
    <g id="copper1" >
     <circle id="connector0pad"  fill="none" cx="4.75208" cy="83.0448" stroke-width="1.44" r="1.98" stroke="black"/>
     <circle id="connector1pad"  fill="none" cx="4.752" cy="4.752" stroke-width="1.44" r="1.98" stroke="black"/>
    </g>
   </g>
  </g>
  <g partID="854318091">
   <g transform="translate(33.2456,2.9224)">
    <g id="copper1" >
     <circle id="connector0pad"  fill="none" cx="4.752" cy="19.6339" stroke-width="1.44" r="1.98" stroke="black"/>
     <circle id="connector1pad"  fill="none" cx="4.752" cy="4.752" stroke-width="1.44" r="1.98" stroke="black"/>
    </g>
   </g>
  </g>
  <g partID="854327671">
   <g transform="translate(45.6616,38.3552)">
    <g id="copper1" >
     <circle id="connector0pad"  fill="none" cx="4.752" cy="4.752" stroke-width="1.44" r="1.98" stroke="black"/>
     <circle id="connector1pad"  fill="none" cx="21.3913" cy="4.752" stroke-width="1.44" r="1.98" stroke="black"/>
    </g>
   </g>
  </g>
  <g partID="854332791">
   <g transform="translate(84.2696,29.1432)">
    <g id="copper1" >
     <circle id="connector0pad"  fill="none" cx="4.752" cy="58.6102" stroke-width="1.44" r="1.98" stroke="black"/>
     <circle id="connector1pad"  fill="none" cx="4.752" cy="4.752" stroke-width="1.44" r="1.98" stroke="black"/>
    </g>
   </g>
  </g>
  <g partID="854336891">
   <g transform="translate(44.9528,45.4424)">
    <g id="copper1" >
     <circle id="connector0pad"  fill="none" cx="4.752" cy="4.752" stroke-width="1.44" r="1.98" stroke="black"/>
     <circle id="connector1pad"  fill="none" cx="35.5646" cy="4.752" stroke-width="1.44" r="1.98" stroke="black"/>
    </g>
   </g>
  </g>
  <g partID="854339011">
   <g transform="translate(54.1656,52.5288)">
    <g id="copper1" >
     <circle id="connector0pad"  fill="none" cx="4.752" cy="4.752" stroke-width="1.44" r="1.98" stroke="black"/>
     <circle id="connector1pad"  fill="none" cx="26.352" cy="4.752" stroke-width="1.44" r="1.98" stroke="black"/>
    </g>
   </g>
  </g>
  <g partID="854342411">
   <g transform="translate(125.372,83.0012)">
    <g id="copper1" >
     <circle id="connector0pad"  fill="none" cx="4.752" cy="26.352" stroke-width="1.44" r="1.98" stroke="black"/>
     <circle id="connector1pad"  fill="none" cx="4.752" cy="4.752" stroke-width="1.44" r="1.98" stroke="black"/>
    </g>
   </g>
  </g>
  <g partID="854355961">
   <g transform="translate(70.096,101.426)">
    <g id="copper1" >
     <circle id="connector0pad"  fill="none" cx="4.752" cy="26.352" stroke-width="1.44" r="1.98" stroke="black"/>
     <circle id="connector1pad"  fill="none" cx="4.752" cy="4.752" stroke-width="1.44" r="1.98" stroke="black"/>
    </g>
   </g>
  </g>
  <g partID="854359301">
   <g transform="translate(6.3168,125.521)">
    <g id="copper1" >
     <circle id="connector0pad"  fill="none" cx="4.752" cy="26.352" stroke-width="1.44" r="1.98" stroke="black"/>
     <circle id="connector1pad"  fill="none" cx="4.752" cy="4.752" stroke-width="1.44" r="1.98" stroke="black"/>
    </g>
   </g>
  </g>
  <g partID="854361601">
   <g transform="translate(116.868,83.0012)">
    <g id="copper1" >
     <circle id="connector0pad"  fill="none" cx="4.752" cy="26.352" stroke-width="1.44" r="1.98" stroke="black"/>
     <circle id="connector1pad"  fill="none" cx="4.752" cy="4.752" stroke-width="1.44" r="1.98" stroke="black"/>
    </g>
   </g>
  </g>
  <g partID="854367471">
   <g transform="translate(81.4352,184.34)">
    <g id="copper1" >
     <circle id="connector0pad"  fill="none" cx="4.752" cy="4.752" stroke-width="1.44" r="1.98" stroke="black"/>
     <circle id="connector1pad"  fill="none" cx="27.4292" cy="4.752" stroke-width="1.44" r="1.98" stroke="black"/>
    </g>
   </g>
  </g>
  <g partID="854367831">
   <g transform="translate(53.4568,170.875)">
    <g id="copper1" >
     <circle id="connector0pad"  fill="none" cx="4.752" cy="5.46062" stroke-width="1.44" r="1.98" stroke="black"/>
     <circle id="connector1pad"  fill="none" cx="79.5017" cy="4.752" stroke-width="1.44" r="1.98" stroke="black"/>
    </g>
   </g>
  </g>
  <g partID="854371691">
   <g transform="translate(5.608,171.584)">
    <g id="copper1" >
     <circle id="connector0pad"  fill="none" cx="4.752" cy="4.752" stroke-width="1.44" r="1.98" stroke="black"/>
     <circle id="connector1pad"  fill="none" cx="46.563" cy="4.752" stroke-width="1.44" r="1.98" stroke="black"/>
    </g>
   </g>
  </g>
  <g partID="854224671">
   <g transform="translate(72.148,256.862)">
    <g id="copper1" >
     <!-- <rect width="55" x="10" y="10" fill="none" height="55" stroke="rgb(255, 191, 0)" stroke-width="20" /> -->
     <circle id="connector0pin"  fill="none" cx="2.7" cy="2.7" stroke-width="1.44" r="1.98" stroke="black"/>
     <circle id="connector1pin"  fill="none" cx="24.3" cy="2.7" stroke-width="1.44" r="1.98" stroke="black"/>
    </g>
   </g>
  </g>
  <g partID="854225271">
   <g transform="translate(14.7904,134.76)">
    <g id="copper1" >
     <g id="copper0" >
      <rect height="3.96" x="1.98" y="5.58" width="3.96" id="rect11"  fill="none" stroke-width="1.44" stroke="black"/>
      <circle id="connector0pin"  cx="3.96" fill="none" cy="7.56" stroke-width="1.44" r="1.98" stroke="black"/>
      <circle id="connector1pin"  cx="11.16" fill="none" cy="7.56" stroke-width="1.44" r="1.98" stroke="black"/>
     </g>
    </g>
   </g>
  </g>
  <g partID="854226531">
   <g transform="translate(21.5096,75.6493)">
    <g id="copper1" >
     <g id="copper0" >
      <rect height="4.464" x="0.72" y="1.368" width="4.464"  fill="none" stroke-width="1.44" stroke="black"/>
      <circle id="connector0pin"  cx="3.024" fill="none" cy="3.6" stroke-width="1.44" r="2.232" stroke="black"/>
      <circle id="connector1pin"  cx="24.48" fill="none" cy="3.6" stroke-width="1.44" r="2.232" stroke="black"/>
     </g>
    </g>
   </g>
  </g>
  <g partID="854225751">
   <g transform="translate(52.3608,96.3138)">
    <g transform="matrix(-1,0,0,-1,0,0)">
     <g id="copper1" >
      <g id="copper0" >
       <rect height="4.464" x="0.72" y="1.368" width="4.464"  fill="none" stroke-width="1.44" stroke="black"/>
       <circle id="connector0pin"  cx="3.024" fill="none" cy="3.6" stroke-width="1.44" r="2.232" stroke="black"/>
       <circle id="connector1pin"  cx="24.48" fill="none" cy="3.6" stroke-width="1.44" r="2.232" stroke="black"/>
      </g>
     </g>
    </g>
   </g>
  </g>
  <g partID="854230321">
   <g transform="translate(41.068,18.8344)">
    <g transform="matrix(0,-1,1,0,0,0)">
     <g id="copper1" >
      <g id="copper0" >
       <rect height="3.96" x="1.98" y="5.58" width="3.96" id="rect11"  fill="none" stroke-width="1.44" stroke="black"/>
       <circle id="connector0pin"  cx="3.96" fill="none" cy="7.56" stroke-width="1.44" r="1.98" stroke="black"/>
       <circle id="connector1pin"  cx="11.16" fill="none" cy="7.56" stroke-width="1.44" r="1.98" stroke="black"/>
      </g>
     </g>
    </g>
   </g>
  </g>
  <g partID="854253051">
   <g transform="translate(58.504,22.8288)">
    <g transform="matrix(0,-1,1,0,0,0)">
     <g id="copper1" >
      <circle id="connector0pin"  cx="2.88" fill="none" cy="2.88" stroke-width="1.44" r="1.8" stroke="black"/>
      <circle id="connector1pin"  cx="17.28" fill="none" cy="2.88" stroke-width="1.44" r="1.8" stroke="black"/>
     </g>
    </g>
   </g>
  </g>
  <g partID="854232041">
   <g transform="translate(65.5432,2.8488)">
    <g id="copper1" >
     <!-- <rect width="55" x="10" y="10" fill="none" height="55" stroke="rgb(255, 191, 0)" stroke-width="20" /> -->
     <circle id="connector0pin"  fill="none" cx="2.7" cy="2.7" stroke-width="1.44" r="1.98" stroke="black"/>
     <circle id="connector1pin"  fill="none" cx="17.1" cy="2.7" stroke-width="1.44" r="1.98" stroke="black"/>
    </g>
   </g>
  </g>
  <g partID="854232071">
   <g transform="translate(65.5432,9.9352)">
    <g id="copper1" >
     <!-- <rect width="55" x="10" y="10" fill="none" height="55" stroke="rgb(255, 191, 0)" stroke-width="20" /> -->
     <circle id="connector0pin"  fill="none" cx="2.7" cy="2.7" stroke-width="1.44" r="1.98" stroke="black"/>
     <circle id="connector1pin"  fill="none" cx="17.1" cy="2.7" stroke-width="1.44" r="1.98" stroke="black"/>
    </g>
   </g>
  </g>
  <g partID="854233091">
   <g transform="translate(88.548,18.1256)">
    <g transform="matrix(0,-1,1,0,0,0)">
     <g id="copper1" >
      <g id="copper0" >
       <rect height="3.96" x="1.98" y="5.58" width="3.96" id="rect11"  fill="none" stroke-width="1.44" stroke="black"/>
       <circle id="connector0pin"  cx="3.96" fill="none" cy="7.56" stroke-width="1.44" r="1.98" stroke="black"/>
       <circle id="connector1pin"  cx="11.16" fill="none" cy="7.56" stroke-width="1.44" r="1.98" stroke="black"/>
      </g>
     </g>
    </g>
   </g>
  </g>
  <g partID="854258111">
   <g transform="translate(105.275,23.5368)">
    <g transform="matrix(0,-1,1,0,0,0)">
     <g id="copper1" >
      <circle id="connector0pin"  cx="2.88" fill="none" cy="2.88" stroke-width="1.44" r="1.8" stroke="black"/>
      <circle id="connector1pin"  cx="17.28" fill="none" cy="2.88" stroke-width="1.44" r="1.8" stroke="black"/>
     </g>
    </g>
   </g>
  </g>
  <g partID="854235331">
   <g transform="translate(124.219,156.785)">
    <g transform="matrix(0,1,-1,0,0,0)">
     <g id="copper1" >
      <g id="copper0" >
       <rect height="3.96" x="1.98" y="5.58" width="3.96" id="rect11"  fill="none" stroke-width="1.44" stroke="black"/>
       <circle id="connector0pin"  cx="3.96" fill="none" cy="7.56" stroke-width="1.44" r="1.98" stroke="black"/>
       <circle id="connector1pin"  cx="11.16" fill="none" cy="7.56" stroke-width="1.44" r="1.98" stroke="black"/>
      </g>
     </g>
    </g>
   </g>
  </g>
  <g partID="854235381">
   <g transform="translate(95.1512,156.954)">
    <g transform="matrix(1,0,0,1,0,0)">
     <g id="copper1" >
      <!-- <rect width="55" x="35" y="35" fill="none" height="55" stroke="rgb(255, 191, 0)" stroke-width="20" /> -->
      <circle id="connector0pin"  fill="none" cx="4.5" cy="4.5" stroke-width="1.44" r="1.98" stroke="black"/>
      <circle id="connector1pin"  fill="none" cx="11.7" cy="4.5" stroke-width="1.44" r="1.98" stroke="black"/>
     </g>
    </g>
   </g>
  </g>
  <g partID="854237071">
   <g transform="translate(55.6464,61.3514)">
    <g id="copper1" >
     <g id="copper0" >
      <rect height="3.96" x="2.34" y="2.34" width="3.96" id="square"  fill="none" stroke-width="1.44" stroke="black"/>
      <circle id="connector0pin"  cx="4.32" fill="none" cy="4.32" stroke-width="1.44" r="1.98" stroke="black"/>
      <circle id="connector13pin"  cx="25.92" fill="none" cy="4.32" stroke-width="1.44" r="1.98" stroke="black"/>
      <circle id="connector1pin"  cx="4.32" fill="none" cy="11.52" stroke-width="1.44" r="1.98" stroke="black"/>
      <circle id="connector12pin"  cx="25.92" fill="none" cy="11.52" stroke-width="1.44" r="1.98" stroke="black"/>
      <circle id="connector2pin"  cx="4.32" fill="none" cy="18.72" stroke-width="1.44" r="1.98" stroke="black"/>
      <circle id="connector11pin"  cx="25.92" fill="none" cy="18.72" stroke-width="1.44" r="1.98" stroke="black"/>
      <circle id="connector3pin"  cx="4.32" fill="none" cy="25.92" stroke-width="1.44" r="1.98" stroke="black"/>
      <circle id="connector10pin"  cx="25.92" fill="none" cy="25.92" stroke-width="1.44" r="1.98" stroke="black"/>
      <circle id="connector4pin"  cx="4.32" fill="none" cy="33.12" stroke-width="1.44" r="1.98" stroke="black"/>
      <circle id="connector9pin"  cx="25.92" fill="none" cy="33.12" stroke-width="1.44" r="1.98" stroke="black"/>
      <circle id="connector5pin"  cx="4.32" fill="none" cy="40.32" stroke-width="1.44" r="1.98" stroke="black"/>
      <circle id="connector8pin"  cx="25.92" fill="none" cy="40.32" stroke-width="1.44" r="1.98" stroke="black"/>
      <circle id="connector6pin"  cx="4.32" fill="none" cy="47.52" stroke-width="1.44" r="1.98" stroke="black"/>
      <circle id="connector7pin"  cx="25.92" fill="none" cy="47.52" stroke-width="1.44" r="1.98" stroke="black"/>
     </g>
    </g>
   </g>
  </g>
  <g partID="854298261">
   <g transform="translate(123.563,265.445)">
    <g id="copper1" >
     <circle id="nonconn0"  fill="black" cx="8.68658" cy="8.68658" stroke-width="0" r="7.08661" stroke="black"/>
    </g>
   </g>
  </g>
  <g partID="854298241">
   <g transform="translate(0.9648,265.445)">
    <g id="copper1" >
     <circle id="nonconn0"  fill="black" cx="8.68658" cy="8.68658" stroke-width="0" r="7.08661" stroke="black"/>
    </g>
   </g>
  </g>
  <g partID="854271461">
   <g transform="translate(124.272,0.4048)">
    <g id="copper1" >
     <circle id="nonconn0"  fill="black" cx="8.68658" cy="8.68658" stroke-width="0" r="7.08661" stroke="black"/>
    </g>
   </g>
  </g>
  <g partID="854259571">
   <g transform="translate(0.256,0.4048)">
    <g id="copper1" >
     <circle id="nonconn0"  fill="black" cx="8.68658" cy="8.68658" stroke-width="0" r="7.08661" stroke="black"/>
    </g>
   </g>
  </g>
  <g partID="1890271">
   <g transform="translate(121.159,122.23)">
    <g transform="matrix(0,1,-1,0,0,0)">
     <g id="copper1" >
      <!-- <rect width="55" x="35" y="35" fill="none" height="55" stroke="rgb(255, 191, 0)" stroke-width="20" /> -->
      <circle id="connector0pin"  fill="none" cx="4.5" cy="4.5" stroke-width="1.44" r="1.98" stroke="black"/>
      <circle id="connector1pin"  fill="none" cx="11.7" cy="4.5" stroke-width="1.44" r="1.98" stroke="black"/>
     </g>
    </g>
   </g>
  </g>
  <g partID="1876191">
   <g transform="translate(87.0304,119.026)">
    <g transform="matrix(0,-1,1,0,0,0)">
     <g id="copper1" >
      <!-- <rect width="55" x="10" y="10" fill="none" height="55" stroke="rgb(255, 191, 0)" stroke-width="20" /> -->
      <circle id="connector0pin"  fill="none" cx="2.7" cy="2.7" stroke-width="1.44" r="1.98" stroke="black"/>
      <circle id="connector1pin"  fill="none" cx="17.1" cy="2.7" stroke-width="1.44" r="1.98" stroke="black"/>
     </g>
    </g>
   </g>
  </g>
  <g partID="1853411">
   <g transform="translate(26.5672,28.36)">
    <g id="copper1" >
     <!-- <rect width="55" x="10" y="10" fill="none" height="55" stroke="rgb(255, 191, 0)" stroke-width="20" /> -->
     <circle id="connector0pin"  fill="none" cx="2.7" cy="2.7" stroke-width="1.44" r="1.98" stroke="black"/>
     <circle id="connector1pin"  fill="none" cx="17.1" cy="2.7" stroke-width="1.44" r="1.98" stroke="black"/>
    </g>
   </g>
  </g>
  <g partID="1836331">
   <g transform="translate(26.5672,39.6992)">
    <g id="copper1" >
     <!-- <rect width="55" x="10" y="10" fill="none" height="55" stroke="rgb(255, 191, 0)" stroke-width="20" /> -->
     <circle id="connector0pin"  fill="none" cx="2.7" cy="2.7" stroke-width="1.44" r="1.98" stroke="black"/>
     <circle id="connector1pin"  fill="none" cx="17.1" cy="2.7" stroke-width="1.44" r="1.98" stroke="black"/>
    </g>
   </g>
  </g>
  <g partID="854249151">
   <g transform="translate(58.5944,18.968)">
    <g transform="matrix(0,1,-1,0,0,0)">
     <g id="copper1" >
      <circle id="connector0pin"  cx="2.88" fill="none" cy="2.88" stroke-width="1.44" r="1.8" stroke="black"/>
      <circle id="connector1pin"  cx="17.28" fill="none" cy="2.88" stroke-width="1.44" r="1.8" stroke="black"/>
     </g>
    </g>
   </g>
  </g>
  <g partID="854247931">
   <g transform="translate(70.6416,18.7408)">
    <g transform="matrix(0,1,-1,0,0,0)">
     <g id="copper1" >
      <circle id="connector0pin"  cx="2.88" fill="none" cy="2.88" stroke-width="1.44" r="1.8" stroke="black"/>
      <circle id="connector1pin"  cx="17.28" fill="none" cy="2.88" stroke-width="1.44" r="1.8" stroke="black"/>
     </g>
    </g>
   </g>
  </g>
  <g partID="1838901">
   <g transform="translate(77.9184,135.65)">
    <g transform="matrix(0,-1,1,0,0,0)">
     <g id="copper1" >
      <g id="copper0" >
       <rect height="3.96" x="1.98" y="5.58" width="3.96" id="rect11"  fill="none" stroke-width="1.44" stroke="black"/>
       <circle id="connector0pin"  cx="3.96" fill="none" cy="7.56" stroke-width="1.44" r="1.98" stroke="black"/>
       <circle id="connector1pin"  cx="11.16" fill="none" cy="7.56" stroke-width="1.44" r="1.98" stroke="black"/>
      </g>
     </g>
    </g>
   </g>
  </g>
  <g partID="1810811">
   <g transform="translate(108.021,98.9997)">
    <g transform="matrix(0,1,-1,0,0,0)">
     <g id="copper1" >
      <!-- <rect width="55" x="10" y="10" fill="none" height="55" stroke="rgb(255, 191, 0)" stroke-width="20" /> -->
      <circle id="connector0pin"  fill="none" cx="2.7" cy="2.7" stroke-width="1.44" r="1.98" stroke="black"/>
      <circle id="connector1pin"  fill="none" cx="17.1" cy="2.7" stroke-width="1.44" r="1.98" stroke="black"/>
     </g>
    </g>
   </g>
  </g>
  <g partID="854301911">
   <g transform="translate(94.6456,119.206)">
    <g transform="matrix(0,-1,1,0,0,0)">
     <g id="copper1" >
      <circle id="connector0pin"  cx="2.88" fill="none" cy="2.88" stroke-width="1.44" r="1.8" stroke="black"/>
      <circle id="connector1pin"  cx="17.28" fill="none" cy="2.88" stroke-width="1.44" r="1.8" stroke="black"/>
     </g>
    </g>
   </g>
  </g>
  <g partID="1817771">
   <g transform="translate(45.9984,112.422)">
    <g transform="matrix(-1,0,0,-1,0,0)">
     <g id="copper1" >
      <!-- <rect width="55" x="10" y="10" fill="none" height="55" stroke="rgb(255, 191, 0)" stroke-width="20" /> -->
      <circle id="connector0pin"  fill="none" cx="2.7" cy="2.7" stroke-width="1.44" r="1.98" stroke="black"/>
      <circle id="connector1pin"  fill="none" cx="24.3" cy="2.7" stroke-width="1.44" r="1.98" stroke="black"/>
     </g>
    </g>
   </g>
  </g>
  <g partID="1817801">
   <g transform="translate(44.8232,144.765)">
    <g transform="matrix(0,-1,1,0,0,0)">
     <g id="copper1" >
      <!-- <rect width="55" x="10" y="15.5" fill="none" height="55" stroke="rgb(255, 191, 0)" stroke-width="20" />  -->
      <circle id="connector0pin"  fill="none" cx="2.7" cy="3.096" stroke-width="1.44" r="1.98" stroke="black"/>
      <circle id="connector1pin"  fill="none" cx="31.5" cy="3.096" stroke-width="1.44" r="1.98" stroke="black"/>
     </g>
    </g>
   </g>
  </g>
  <g partID="1853451">
   <g transform="translate(125.084,23.072)">
    <g id="copper1" >
     <g id="copper0" >
      <circle id="connector0pin"  cx="5.04" fill="none" cy="5.04" stroke-width="1.44" r="2.088" stroke="black"/>
      <circle id="connector1pin"  cx="5.04" fill="none" cy="12.24" stroke-width="1.44" r="2.088" stroke="black"/>
      <circle id="connector2pin"  cx="5.04" fill="none" cy="19.44" stroke-width="1.44" r="2.088" stroke="black"/>
     </g>
    </g>
   </g>
  </g>
  <g partID="854228401">
   <g transform="translate(12.4064,23.8944)">
    <g id="copper1" >
     <g id="copper0" >
      <circle id="connector0pin"  cx="5.04" fill="none" cy="5.04" stroke-width="1.44" r="2.088" stroke="black"/>
      <circle id="connector1pin"  cx="5.04" fill="none" cy="12.24" stroke-width="1.44" r="2.088" stroke="black"/>
      <circle id="connector2pin"  cx="5.04" fill="none" cy="19.44" stroke-width="1.44" r="2.088" stroke="black"/>
     </g>
    </g>
   </g>
  </g>
  <g partID="1834011">
   <g transform="translate(92.4856,23.072)">
    <g id="copper1" >
     <g id="copper0" >
      <circle id="connector0pin"  cx="5.04" fill="none" cy="5.04" stroke-width="1.44" r="2.088" stroke="black"/>
      <circle id="connector1pin"  cx="5.04" fill="none" cy="12.24" stroke-width="1.44" r="2.088" stroke="black"/>
      <circle id="connector2pin"  cx="5.04" fill="none" cy="19.44" stroke-width="1.44" r="2.088" stroke="black"/>
     </g>
    </g>
   </g>
  </g>
  <g partID="1831891">
   <g transform="translate(99.572,254.691)">
    <g id="copper1" >
     <g id="copper0" >
      <circle id="connector0pin"  cx="5.04" fill="none" cy="5.04" stroke-width="1.44" r="2.088" stroke="black"/>
      <circle id="connector1pin"  cx="5.04" fill="none" cy="12.24" stroke-width="1.44" r="2.088" stroke="black"/>
      <circle id="connector2pin"  cx="5.04" fill="none" cy="19.44" stroke-width="1.44" r="2.088" stroke="black"/>
     </g>
    </g>
   </g>
  </g>
  <g partID="1819061">
   <g transform="translate(54.2176,114.49)">
    <g id="copper1" >
     <g id="copper0" >
      <circle id="connector0pin"  cx="5.04" fill="none" cy="5.04" stroke-width="1.44" r="2.088" stroke="black"/>
      <circle id="connector1pin"  cx="5.04" fill="none" cy="12.24" stroke-width="1.44" r="2.088" stroke="black"/>
      <circle id="connector2pin"  cx="5.04" fill="none" cy="19.44" stroke-width="1.44" r="2.088" stroke="black"/>
     </g>
    </g>
   </g>
  </g>
  <g partID="854235311">
   <g transform="translate(94.6112,139.406)">
    <g id="copper1" >
     <g id="copper0" >
      <circle id="connector0pin"  cx="5.04" fill="none" cy="5.04" stroke-width="1.44" r="2.088" stroke="black"/>
      <circle id="connector1pin"  cx="5.04" fill="none" cy="12.24" stroke-width="1.44" r="2.088" stroke="black"/>
     </g>
    </g>
   </g>
  </g>
  <g partID="854229411">
   <g transform="translate(29.5736,19.9144)">
    <g transform="matrix(-1,0,0,-1,0,0)">
     <g id="copper1" >
      <g id="copper0" >
       <circle id="connector0pin"  cx="5.04" fill="none" cy="5.04" stroke-width="1.44" r="2.088" stroke="black"/>
       <circle id="connector1pin"  cx="5.04" fill="none" cy="12.24" stroke-width="1.44" r="2.088" stroke="black"/>
      </g>
     </g>
    </g>
   </g>
  </g>
  <g partID="1840931">
   <g transform="translate(104.691,138.856)">
    <g transform="matrix(-1,0,0,-1,0,0)">
     <g id="copper1" >
      <g id="copper0" >
       <circle id="connector0pin"  cx="5.04" fill="none" cy="5.04" stroke-width="1.44" r="2.088" stroke="black"/>
       <circle id="connector1pin"  cx="5.04" fill="none" cy="12.24" stroke-width="1.44" r="2.088" stroke="black"/>
      </g>
     </g>
    </g>
   </g>
  </g>
  <g partID="1687021">
   <g transform="translate(99.9472,229.542)">
    <g transform="matrix(0,-1,1,0,0,0)">
     <g id="copper1" >
      <g id="copper0" >
       <circle id="connector0pin"  cx="3.6" fill="none" cy="8.208" stroke-width="1.44" r="1.98" stroke="black"/>
       <circle id="connector1pin"  cx="10.8" fill="none" cy="8.208" stroke-width="1.44" r="1.98" stroke="black"/>
       <circle id="connector2pin"  cx="18" fill="none" cy="8.208" stroke-width="1.44" r="1.98" stroke="black"/>
      </g>
     </g>
    </g>
   </g>
  </g>
  <g partID="1687031">
   <g transform="translate(14.908,250.094)">
    <g transform="matrix(0,-1,1,0,0,0)">
     <g id="copper1" >
      <g id="copper0" >
       <circle id="connector0pin"  cx="3.6" fill="none" cy="8.208" stroke-width="1.44" r="1.98" stroke="black"/>
       <circle id="connector1pin"  cx="10.8" fill="none" cy="8.208" stroke-width="1.44" r="1.98" stroke="black"/>
       <circle id="connector2pin"  cx="18" fill="none" cy="8.208" stroke-width="1.44" r="1.98" stroke="black"/>
      </g>
     </g>
    </g>
   </g>
  </g>
  <g partID="1687041">
   <g transform="translate(20.452,227.189)">
    <g transform="matrix(0,-1,1,0,0,0)">
     <g id="copper1" >
      <circle connectorname="A" id="connector0pad"  cx="2.664" fill="none" cy="2.664" stroke-width="1.38841" r="1.9698" stroke="black"/>
      <circle connectorname="C" id="connector1pad"  cx="24.264" fill="none" cy="2.664" stroke-width="1.38841" r="1.9698" stroke="black"/>
      <g id="copper0" >
       <circle connectorname="A" id="connector0pad"  cx="2.664" fill="none" cy="2.664" stroke-width="1.38841" r="1.9698" stroke="black"/>
       <circle connectorname="C" id="connector1pad"  cx="24.264" fill="none" cy="2.664" stroke-width="1.38841" r="1.9698" stroke="black"/>
      </g>
     </g>
    </g>
   </g>
  </g>
  <g partID="1687051">
   <g transform="translate(39.2456,198.475)">
    <g id="copper1" >
     <circle connectorname="A" id="connector0pad"  cx="2.664" fill="none" cy="2.664" stroke-width="1.38841" r="1.9698" stroke="black"/>
     <circle connectorname="C" id="connector1pad"  cx="24.264" fill="none" cy="2.664" stroke-width="1.38841" r="1.9698" stroke="black"/>
     <g id="copper0" >
      <circle connectorname="A" id="connector0pad"  cx="2.664" fill="none" cy="2.664" stroke-width="1.38841" r="1.9698" stroke="black"/>
      <circle connectorname="C" id="connector1pad"  cx="24.264" fill="none" cy="2.664" stroke-width="1.38841" r="1.9698" stroke="black"/>
     </g>
    </g>
   </g>
  </g>
  <g partID="1687061">
   <g transform="translate(66.1752,216.191)">
    <g id="copper1" >
     <circle connectorname="A" id="connector0pad"  cx="2.664" fill="none" cy="2.664" stroke-width="1.38841" r="1.9698" stroke="black"/>
     <circle connectorname="C" id="connector1pad"  cx="24.264" fill="none" cy="2.664" stroke-width="1.38841" r="1.9698" stroke="black"/>
     <g id="copper0" >
      <circle connectorname="A" id="connector0pad"  cx="2.664" fill="none" cy="2.664" stroke-width="1.38841" r="1.9698" stroke="black"/>
      <circle connectorname="C" id="connector1pad"  cx="24.264" fill="none" cy="2.664" stroke-width="1.38841" r="1.9698" stroke="black"/>
     </g>
    </g>
   </g>
  </g>
  <g partID="1687071">
   <g transform="translate(84.2312,201.31)">
    <g id="copper1" >
     <circle connectorname="A" id="connector0pad"  cx="2.664" fill="none" cy="2.664" stroke-width="1.38841" r="1.9698" stroke="black"/>
     <circle connectorname="C" id="connector1pad"  cx="24.264" fill="none" cy="2.664" stroke-width="1.38841" r="1.9698" stroke="black"/>
     <g id="copper0" >
      <circle connectorname="A" id="connector0pad"  cx="2.664" fill="none" cy="2.664" stroke-width="1.38841" r="1.9698" stroke="black"/>
      <circle connectorname="C" id="connector1pad"  cx="24.264" fill="none" cy="2.664" stroke-width="1.38841" r="1.9698" stroke="black"/>
     </g>
    </g>
   </g>
  </g>
  <g partID="1687081">
   <g transform="translate(33.3136,185.42)">
    <g transform="matrix(1,0,0,1,0,0)">
     <g id="copper1" >
      <!-- <rect width="55" x="10" y="23.5" fill="none" height="55" stroke="rgb(255, 191, 0)" stroke-width="20" /> -->
      <circle id="connector0pin"  fill="none" cx="2.7" cy="3.672" stroke-width="1.44" r="1.98" stroke="black"/>
      <circle id="connector1pin"  fill="none" cx="38.7" cy="3.672" stroke-width="1.44" r="1.98" stroke="black"/>
     </g>
    </g>
   </g>
  </g>
  <g partID="1687091">
   <g transform="translate(76.6976,213.315)">
    <g transform="matrix(-1,0,0,-1,0,0)">
     <g id="copper1" >
      <!-- <rect width="55" x="10" y="23.5" fill="none" height="55" stroke="rgb(255, 191, 0)" stroke-width="20" /> -->
      <circle id="connector0pin"  fill="none" cx="2.7" cy="3.672" stroke-width="1.44" r="1.98" stroke="black"/>
      <circle id="connector1pin"  fill="none" cx="38.7" cy="3.672" stroke-width="1.44" r="1.98" stroke="black"/>
     </g>
    </g>
   </g>
  </g>
  <g partID="1687101">
   <g transform="translate(119.359,186.392)">
    <g transform="matrix(0,1,-1,0,0,0)">
     <g id="copper1" >
      <!-- <rect width="55" x="10" y="10" fill="none" height="55" stroke="rgb(255, 191, 0)" stroke-width="20" /> -->
      <circle id="connector0pin"  fill="none" cx="2.7" cy="2.7" stroke-width="1.44" r="1.98" stroke="black"/>
      <circle id="connector1pin"  fill="none" cx="17.1" cy="2.7" stroke-width="1.44" r="1.98" stroke="black"/>
     </g>
    </g>
   </g>
  </g>
  <g partID="1687111">
   <g transform="translate(71.1704,250.171)">
    <g transform="matrix(0,1,-1,0,0,0)">
     <g id="copper1" >
      <!-- <rect width="55" x="10" y="10" fill="none" height="55" stroke="rgb(255, 191, 0)" stroke-width="20" /> -->
      <circle id="connector0pin"  fill="none" cx="2.7" cy="2.7" stroke-width="1.44" r="1.98" stroke="black"/>
      <circle id="connector1pin"  fill="none" cx="17.1" cy="2.7" stroke-width="1.44" r="1.98" stroke="black"/>
     </g>
    </g>
   </g>
  </g>
  <g partID="1687131">
   <g transform="translate(50.0904,151.261)">
    <g transform="matrix(0,1,-1,0,0,0)">
     <g id="copper1" >
      <circle id="connector0pin"  cx="2.88" fill="none" cy="2.88" stroke-width="1.44" r="1.8" stroke="black"/>
      <circle id="connector1pin"  cx="17.28" fill="none" cy="2.88" stroke-width="1.44" r="1.8" stroke="black"/>
     </g>
    </g>
   </g>
  </g>
  <g partID="1687141">
   <g transform="translate(65.5904,243.704)">
    <g transform="matrix(0,-1,1,0,0,0)">
     <g id="copper1" >
      <circle id="connector0pin"  cx="2.88" fill="none" cy="2.88" stroke-width="1.44" r="1.8" stroke="black"/>
      <circle id="connector1pin"  cx="17.28" fill="none" cy="2.88" stroke-width="1.44" r="1.8" stroke="black"/>
     </g>
    </g>
   </g>
  </g>
  <g partID="1687151">
   <g transform="translate(76.22,166.369)">
    <g transform="matrix(1,0,0,1,0,0)">
     <g id="copper1" >
      <circle id="connector0pin"  cx="2.88" fill="none" cy="2.88" stroke-width="1.44" r="1.8" stroke="black"/>
      <circle id="connector1pin"  cx="17.28" fill="none" cy="2.88" stroke-width="1.44" r="1.8" stroke="black"/>
     </g>
    </g>
   </g>
  </g>
  <g partID="1687161">
   <g transform="translate(32.2,157.634)">
    <g transform="matrix(0,-1,1,0,0,0)">
     <g id="copper1" >
      <!-- <rect width="55" x="10" y="23.5" fill="none" height="55" stroke="rgb(255, 191, 0)" stroke-width="20" /> -->
      <circle id="connector0pin"  fill="none" cx="2.7" cy="3.672" stroke-width="1.44" r="1.98" stroke="black"/>
      <circle id="connector1pin"  fill="none" cx="38.7" cy="3.672" stroke-width="1.44" r="1.98" stroke="black"/>
     </g>
    </g>
   </g>
  </g>
  <g partID="1687171">
   <g transform="translate(63.3752,238.833)">
    <g transform="matrix(0,1,-1,0,0,0)">
     <g id="copper1" >
      <!-- <rect width="55" x="10" y="10" fill="none" height="55" stroke="rgb(255, 191, 0)" stroke-width="20" /> -->
      <circle id="connector0pin"  fill="none" cx="2.7" cy="2.7" stroke-width="1.44" r="1.98" stroke="black"/>
      <circle id="connector1pin"  fill="none" cx="24.3" cy="2.7" stroke-width="1.44" r="1.98" stroke="black"/>
     </g>
    </g>
   </g>
  </g>
  <g partID="854295861">
   <g transform="translate(65.5904,164.561)">
    <g transform="matrix(0,-1,1,0,0,0)">
     <g id="copper1" >
      <circle id="connector0pin"  cx="2.88" fill="none" cy="2.88" stroke-width="1.44" r="1.8" stroke="black"/>
      <circle id="connector1pin"  cx="17.28" fill="none" cy="2.88" stroke-width="1.44" r="1.8" stroke="black"/>
     </g>
    </g>
   </g>
  </g>
  <g partID="1687221">
   <g transform="translate(135.658,220.847)">
    <g transform="matrix(-1,0,0,-1,0,0)">
     <g id="copper1" >
      <!-- <rect width="55" x="10" y="10" fill="none" height="55" stroke="rgb(255, 191, 0)" stroke-width="20" /> -->
      <circle id="connector0pin"  fill="none" cx="2.7" cy="2.7" stroke-width="1.44" r="1.98" stroke="black"/>
      <circle id="connector1pin"  fill="none" cx="17.1" cy="2.7" stroke-width="1.44" r="1.98" stroke="black"/>
     </g>
    </g>
   </g>
  </g>
  <g partID="1687241">
   <g transform="translate(60.5408,144.241)">
    <g transform="matrix(0,1,-1,0,0,0)">
     <g id="copper1" >
      <!-- <rect width="55" x="10" y="10" fill="none" height="55" stroke="rgb(255, 191, 0)" stroke-width="20" /> -->
      <circle id="connector0pin"  fill="none" cx="2.7" cy="2.7" stroke-width="1.44" r="1.98" stroke="black"/>
      <circle id="connector1pin"  fill="none" cx="24.3" cy="2.7" stroke-width="1.44" r="1.98" stroke="black"/>
     </g>
    </g>
   </g>
  </g>
  <g partID="1687281">
   <g transform="translate(121.358,258.406)">
    <g transform="matrix(0,-1,1,0,0,0)">
     <g id="copper1" >
      <!-- <rect width="55" x="10" y="15.5" fill="none" height="55" stroke="rgb(255, 191, 0)" stroke-width="20" />  -->
      <circle id="connector0pin"  fill="none" cx="2.7" cy="3.096" stroke-width="1.44" r="1.98" stroke="black"/>
      <circle id="connector1pin"  fill="none" cx="31.5" cy="3.096" stroke-width="1.44" r="1.98" stroke="black"/>
     </g>
    </g>
   </g>
  </g>
  <g partID="1853461">
   <g transform="translate(119.359,32.9808)">
    <g transform="matrix(0,1,-1,0,0,0)">
     <g id="copper1" >
      <!-- <rect width="55" x="10" y="10" fill="none" height="55" stroke="rgb(255, 191, 0)" stroke-width="20" /> -->
      <circle id="connector0pin"  fill="none" cx="2.7" cy="2.7" stroke-width="1.44" r="1.98" stroke="black"/>
      <circle id="connector1pin"  fill="none" cx="24.3" cy="2.7" stroke-width="1.44" r="1.98" stroke="black"/>
     </g>
    </g>
   </g>
  </g>
  <g partID="1687291">
   <g transform="translate(112.982,32.9808)">
    <g transform="matrix(0,1,-1,0,0,0)">
     <g id="copper1" >
      <!-- <rect width="55" x="10" y="10" fill="none" height="55" stroke="rgb(255, 191, 0)" stroke-width="20" /> -->
      <circle id="connector0pin"  fill="none" cx="2.7" cy="2.7" stroke-width="1.44" r="1.98" stroke="black"/>
      <circle id="connector1pin"  fill="none" cx="24.3" cy="2.7" stroke-width="1.44" r="1.98" stroke="black"/>
     </g>
    </g>
   </g>
  </g>
 </g>
</svg>
